<?xml version="1.0" standalone="yes"?>
<svg xmlns="http://www.w3.org/2000/svg" width="480" height="199">
<path style="fill:#000000; stroke:none;" d="M0 0L0 199L480 199L480 0L0 0z"/>
<path style="fill:#404040; stroke:none;" d="M400 53L401 54L400 53z"/>
<path style="fill:#808080; stroke:none;" d="M401.667 53.3333C401.222 53.7778 402.278 53.7222 402.333 53.6667C402.778 53.2221 401.722 53.2779 401.667 53.3333z"/>
<path style="fill:#303030; stroke:none;" d="M398 54L397 56C398.263 55.0286 398.392 55.3063 398 54z"/>
<path style="fill:#d0d0d0; stroke:none;" d="M399 54L400 55L399 54z"/>
<path style="fill:#ffffff; stroke:none;" d="M414 116C408.45 119.162 403.319 123.12 398 126.667C392.846 130.102 377.949 141.415 377.282 127.999C377.217 126.676 377.606 125.279 377.889 124C378.336 121.982 378.873 119.964 379.519 118C384.473 102.952 391.68 88.1472 398.753 74C400.91 69.6857 404.224 64.884 404.768 60.0046C404.979 58.1108 404.824 55.4578 402.686 54.7122C400.008 53.7782 397.545 56.1882 396.105 58.1088C392.438 62.9984 389.854 69.4165 387.424 75C379.769 92.5963 369.195 112.51 368.093 132C367.548 141.648 374.718 147.241 384 144.147C390.408 142.011 395.359 136.634 400 132C404.914 127.094 411.036 122.355 414 116z"/>
<path style="fill:#606060; stroke:none;" d="M404 54L405 55L404 54z"/>
<path style="fill:#404040; stroke:none;" d="M405 55L406 56L405 55z"/>
<path style="fill:#909090; stroke:none;" d="M405 56L406 57L405 56z"/>
<path style="fill:#d0d0d0; stroke:none;" d="M396 57L397 58L396 57z"/>
<path style="fill:#c0c0c0; stroke:none;" d="M405 57L405 60C405.696 58.4463 405.696 58.5537 405 57z"/>
<path style="fill:#707070; stroke:none;" d="M395 58L396 59L395 58z"/>
<path style="fill:#808080; stroke:none;" d="M394 60L395 61L394 60z"/>
<path style="fill:#606060; stroke:none;" d="M405 60L406 61L405 60z"/>
<path style="fill:#a0a0a0; stroke:none;" d="M393 62L394 63L393 62z"/>
<path style="fill:#808080; stroke:none;" d="M404 62L405 63L404 62z"/>
<path style="fill:#a0a0a0; stroke:none;" d="M392 64L393 65L392 64z"/>
<path style="fill:#808080; stroke:none;" d="M403 64L404 65L403 64z"/>
<path style="fill:#a0a0a0; stroke:none;" d="M391 66L392 67L391 66z"/>
<path style="fill:#808080; stroke:none;" d="M402 66L403 67L402 66M390 68L391 69L390 68M401 68L402 69L401 68M389 70L390 71L389 70z"/>
<path style="fill:#a0a0a0; stroke:none;" d="M400 70L401 71L400 70z"/>
<path style="fill:#707070; stroke:none;" d="M388 72L389 73L388 72z"/>
<path style="fill:#a0a0a0; stroke:none;" d="M399 72L400 73L399 72z"/>
<path style="fill:#606060; stroke:none;" d="M387 74L388 75L387 74z"/>
<path style="fill:#a0a0a0; stroke:none;" d="M398 74L399 75L398 74z"/>
<path style="fill:#404040; stroke:none;" d="M386 76L387 77L386 76z"/>
<path style="fill:#a0a0a0; stroke:none;" d="M397 76L398 77L397 76z"/>
<path style="fill:#c0c0c0; stroke:none;" d="M386 77L387 78L386 77M396 78L397 79L396 78z"/>
<path style="fill:#a0a0a0; stroke:none;" d="M385 79L386 80L385 79z"/>
<path style="fill:#404040; stroke:none;" d="M396 79L397 80L396 79z"/>
<path style="fill:#c0c0c0; stroke:none;" d="M395 80L396 81L395 80z"/>
<path style="fill:#808080; stroke:none;" d="M384 81L385 82L384 81z"/>
<path style="fill:#404040; stroke:none;" d="M395 81L396 82L395 81z"/>
<path style="fill:#d0d0d0; stroke:none;" d="M394 82L395 83L394 82z"/>
<path style="fill:#606060; stroke:none;" d="M383 83L384 84L383 83M394 83L395 84L394 83z"/>
<path style="fill:#d0d0d0; stroke:none;" d="M383 84L384 85L383 84z"/>
<path style="fill:#404040; stroke:none;" d="M382 85L383 86L382 85z"/>
<path style="fill:#606060; stroke:none;" d="M393 85L394 86L393 85z"/>
<path style="fill:#a0a0a0; stroke:none;" d="M382 86L383 87L382 86z"/>
<path style="fill:#808080; stroke:none;" d="M392 87L393 88L392 87M381 88L382 89L381 88z"/>
<path style="fill:#707070; stroke:none;" d="M243.667 89.3333C243.222 89.7777 244.278 89.7223 244.333 89.6667C244.778 89.2222 243.722 89.2778 243.667 89.3333z"/>
<path style="fill:#909090; stroke:none;" d="M391 89L392 90L391 89z"/>
<path style="fill:#a0a0a0; stroke:none;" d="M241 90L242 91L241 90z"/>
<path style="fill:#ffffff; stroke:none;" d="M194 107C194.461 101.154 195.358 96.588 193 91C177.984 98.403 186.985 125.098 171 132.117C156.794 138.354 165.185 112.179 156.941 110.358C153.245 109.541 149.111 111.714 146 113.439C139.259 117.178 133.467 122.803 126 125C128.125 116.061 139.494 106.389 148 103.243C151.318 102.016 160.744 106.485 161.573 101.757C163.158 92.7191 150.728 91.2071 145 93.4792C133.576 98.0109 121.327 109.314 114.043 119C111.237 122.731 107.813 128.062 108.322 132.985C108.91 138.674 114.507 139.378 119 137.894C125.297 135.815 130.735 131.514 136 127.629C138.714 125.626 142.347 122.164 145.907 121.967C150.288 121.724 151.928 128.008 153.644 130.985C157.734 138.082 166.173 141.286 172.892 135.61C174.798 134 175.868 132.162 177 130C176.918 133.405 172.703 143.645 176.6 145.824C181.091 148.335 184.856 137.665 185.999 135C191.663 121.794 198.335 108.06 215 109C213.617 113.068 211.467 115.498 208 118C214.747 119.103 216.987 112.061 221.459 108.733C223.621 107.124 226.58 107.374 228.998 106.335C231.773 105.143 233.844 103.038 236 101C235.596 110.259 232.01 119.336 228.951 128C227.825 131.188 225.54 136.514 228.603 139.377C231.703 142.273 235.332 138.387 237.099 135.981C240.948 130.738 244.089 125.523 249.001 121.106C250.951 119.352 253.865 116.613 256.772 117.573C259.393 118.44 259.864 121.644 259.786 124.001C259.551 131.173 258.3 137.861 260 145C269.078 140.731 273.647 129.272 280.174 122.001C282.53 119.375 286.108 114.841 289.999 114.752C293.177 114.679 295.44 117.701 297.1 120.005C300.684 124.98 303.891 130.741 309.015 134.347C315.659 139.024 319.448 134.098 326 134.802C330.644 135.301 333.991 139.541 339 139.902C351.85 140.829 365.687 127.151 370 116C362.534 121.105 355.955 128.637 347 131.211C340.657 133.034 331.288 132.093 330.272 123.999C329.83 120.48 331.718 117.148 333 114C341.124 116.4 350.277 113.509 354.772 105.985C356.694 102.768 358.335 96.8219 355.258 93.7423C350.783 89.2644 341.377 93.3607 337 95.8796C324.256 103.214 319.699 117.432 324 131C307.407 131.445 308.559 103.488 293 101.247C282.422 99.7236 276.227 114.72 268 119C267.007 115.868 266.629 111.894 264.987 109.059C259.244 99.1481 246.955 114.225 242 118C241.996 110.771 251.325 99.1143 246.817 92.3218C244.222 88.4117 239.592 91.7868 237.285 94.1088C234.12 97.2952 231.445 101.827 227.001 103.392C222.32 105.041 219.342 100.966 214.985 100.513C207.723 99.7582 200.047 103.471 194 107z"/>
<path style="fill:#606060; stroke:none;" d="M246 90L247 91L246 90M380 90L381 91L380 90z"/>
<path style="fill:#404040; stroke:none;" d="M150 91C151.506 91.683 152.315 91.8259 154 92C152.494 91.317 151.685 91.1741 150 91z"/>
<path style="fill:#909090; stroke:none;" d="M190 91L191 92L190 91z"/>
<path style="fill:#606060; stroke:none;" d="M193 91L194 92L193 91z"/>
<path style="fill:#303030; stroke:none;" d="M239 91L240 92L239 91z"/>
<path style="fill:#404040; stroke:none;" d="M247 91L248 92L247 91z"/>
<path style="fill:#505050; stroke:none;" d="M346.667 91.3333C346.222 91.7779 347.278 91.7222 347.333 91.6667C347.778 91.2223 346.722 91.2777 346.667 91.3333z"/>
<path style="fill:#808080; stroke:none;" d="M348 91C349.506 91.683 350.315 91.8259 352 92C350.494 91.3169 349.685 91.1741 348 91z"/>
<path style="fill:#505050; stroke:none;" d="M352 91L353 92L352 91z"/>
<path style="fill:#c0c0c0; stroke:none;" d="M380 91L381 92L380 91z"/>
<path style="fill:#a0a0a0; stroke:none;" d="M390 91L391 92L390 91z"/>
<path style="fill:#303030; stroke:none;" d="M92 92L93 93L92 92z"/>
<path style="fill:#606060; stroke:none;" d="M93 92L94 93L93 92z"/>
<path style="fill:#909090; stroke:none;" d="M94 92L95 93L94 92z"/>
<path style="fill:#e0e0e0; stroke:none;" d="M95.6667 92.3333C95.2222 92.7778 96.2778 92.7222 96.3333 92.6667C96.7778 92.2222 95.7222 92.2778 95.6667 92.3333z"/>
<path style="fill:#ffffff; stroke:none;" d="M109 124C104.593 126.057 100.508 128.793 96 130.652C84.6058 135.351 71.7457 124.709 78.9946 113C82.4485 107.421 88.584 102.912 94.9853 101.366C97.5958 100.735 101.455 101.572 103.702 99.9475C106.153 98.1759 104.924 95.3241 102.847 93.8619C98.3079 90.6666 90.5266 93.2741 86 95.3133C73.7374 100.837 59.7703 116.734 68.0895 130.985C77.8297 147.671 101.757 137.362 109 124z"/>
<path style="fill:#c0c0c0; stroke:none;" d="M100 92L101 93L100 92z"/>
<path style="fill:#909090; stroke:none;" d="M101 92L102 93L101 92z"/>
<path style="fill:#404040; stroke:none;" d="M102 92L103 93L102 92z"/>
<path style="fill:#606060; stroke:none;" d="M146 92L147 93L146 92z"/>
<path style="fill:#b0b0b0; stroke:none;" d="M147 92L148 93L147 92M155 92L156 93L155 92z"/>
<path style="fill:#303030; stroke:none;" d="M156 92L157 93L156 92z"/>
<path style="fill:#b0b0b0; stroke:none;" d="M189 92L190 93L189 92z"/>
<path style="fill:#303030; stroke:none;" d="M238 92L239 93L238 92z"/>
<path style="fill:#a0a0a0; stroke:none;" d="M247 92L248 93L247 92z"/>
<path style="fill:#707070; stroke:none;" d="M343 92L344 93L343 92z"/>
<path style="fill:#b0b0b0; stroke:none;" d="M344 92L345 93L344 92z"/>
<path style="fill:#a0a0a0; stroke:none;" d="M354 92L355 93L354 92z"/>
<path style="fill:#303030; stroke:none;" d="M390 92L391 93L390 92z"/>
<path style="fill:#505050; stroke:none;" d="M89 93L90 94L89 93z"/>
<path style="fill:#a0a0a0; stroke:none;" d="M90 93L91 94L90 93z"/>
<path style="fill:#c0c0c0; stroke:none;" d="M103 93L104 94L103 93z"/>
<path style="fill:#808080; stroke:none;" d="M144 93L145 94L144 93z"/>
<path style="fill:#606060; stroke:none;" d="M157 93L158 94L157 93M188 93L189 94L188 93z"/>
<path style="fill:#909090; stroke:none;" d="M194 93L195 94L194 93z"/>
<path style="fill:#303030; stroke:none;" d="M237 93L238 94L237 93z"/>
<path style="fill:#404040; stroke:none;" d="M340 93L341 94L340 93z"/>
<path style="fill:#b0b0b0; stroke:none;" d="M341 93L342 94L341 93z"/>
<path style="fill:#303030; stroke:none;" d="M356 93L357 94L356 93z"/>
<path style="fill:#909090; stroke:none;" d="M379 93L380 94L379 93z"/>
<path style="fill:#c0c0c0; stroke:none;" d="M389 93L390 94L389 93z"/>
<path style="fill:#909090; stroke:none;" d="M87 94L88 95L87 94z"/>
<path style="fill:#d0d0d0; stroke:none;" d="M104 94L105 95L104 94z"/>
<path style="fill:#808080; stroke:none;" d="M142 94L143 95L142 94z"/>
<path style="fill:#a0a0a0; stroke:none;" d="M158 94L159 95L158 94z"/>
<path style="fill:#c0c0c0; stroke:none;" d="M194 94L195 95L194 94z"/>
<path style="fill:#303030; stroke:none;" d="M236 94L237 95L236 94z"/>
<path style="fill:#404040; stroke:none;" d="M338 94L339 95L338 94z"/>
<path style="fill:#c0c0c0; stroke:none;" d="M339 94L340 95L339 94z"/>
<path style="fill:#d0d0d0; stroke:none;" d="M356 94L357 95L356 94z"/>
<path style="fill:#404040; stroke:none;" d="M389 94L390 95L389 94M84 95L85 96L84 95z"/>
<path style="fill:#c0c0c0; stroke:none;" d="M85 95L86 96L85 95z"/>
<path style="fill:#a0a0a0; stroke:none;" d="M105 95L106 96L105 95z"/>
<path style="fill:#404040; stroke:none;" d="M140 95L141 96L140 95z"/>
<path style="fill:#a0a0a0; stroke:none;" d="M159 95L160 96L159 95z"/>
<path style="fill:#707070; stroke:none;" d="M187 95L188 96L187 95z"/>
<path style="fill:#c0c0c0; stroke:none;" d="M337 95L338 96L337 95z"/>
<path style="fill:#505050; stroke:none;" d="M357 95L358 96L357 95z"/>
<path style="fill:#606060; stroke:none;" d="M378 95L379 96L378 95z"/>
<path style="fill:#404040; stroke:none;" d="M82 96L83 97L82 96z"/>
<path style="fill:#c0c0c0; stroke:none;" d="M83 96L84 97L83 96z"/>
<path style="fill:#909090; stroke:none;" d="M139 96L140 97L139 96z"/>
<path style="fill:#808080; stroke:none;" d="M160 96L161 97L160 96z"/>
<path style="fill:#d0d0d0; stroke:none;" d="M235 96L236 97L235 96z"/>
<path style="fill:#707070; stroke:none;" d="M335 96L336 97L335 96z"/>
<path style="fill:#808080; stroke:none;" d="M357 96L358 97L357 96z"/>
<path style="fill:#c0c0c0; stroke:none;" d="M378 96L379 97L378 96z"/>
<path style="fill:#606060; stroke:none;" d="M388 96L389 97L388 96z"/>
<path style="fill:#a0a0a0; stroke:none;" d="M81 97L82 98L81 97z"/>
<path style="fill:#404040; stroke:none;" d="M137 97L138 98L137 97M161 97L162 98L161 97z"/>
<path style="fill:#505050; stroke:none;" d="M186 97L187 98L186 97z"/>
<path style="fill:#c0c0c0; stroke:none;" d="M234 97L235 98L234 97M334 97L335 98L334 97M357.333 97.6667C357.278 97.7222 357.222 98.7778 357.667 98.3333C357.722 98.2777 357.778 97.2222 357.333 97.6667z"/>
<path style="fill:#505050; stroke:none;" d="M79 98L80 99L79 98z"/>
<path style="fill:#909090; stroke:none;" d="M136 98L137 99L136 98z"/>
<path style="fill:#c0c0c0; stroke:none;" d="M161 98L162 99L161 98z"/>
<path style="fill:#b0b0b0; stroke:none;" d="M186 98L187 99L186 98z"/>
<path style="fill:#a0a0a0; stroke:none;" d="M233 98L234 99L233 98z"/>
<path style="fill:#c0c0c0; stroke:none;" d="M247 98L248 99L247 98z"/>
<path style="fill:#303030; stroke:none;" d="M332 98L333 99L332 98z"/>
<path style="fill:#909090; stroke:none;" d="M377 98L378 99L377 98z"/>
<path style="fill:#808080; stroke:none;" d="M387 98L388 99L387 98z"/>
<path style="fill:#b0b0b0; stroke:none;" d="M78 99L79 100L78 99z"/>
<path style="fill:#a0a0a0; stroke:none;" d="M105 99L106 100L105 99z"/>
<path style="fill:#303030; stroke:none;" d="M134 99L135 100L134 99z"/>
<path style="fill:#d0d0d0; stroke:none;" d="M135 99L136 100L135 99z"/>
<path style="fill:#303030; stroke:none;" d="M162 99L163 100L162 99z"/>
<path style="fill:#808080; stroke:none;" d="M232 99L233 100L232 99z"/>
<path style="fill:#909090; stroke:none;" d="M247 99L248 100L247 99z"/>
<path style="fill:#404040; stroke:none;" d="M331 99L332 100L331 99z"/>
<path style="fill:#707070; stroke:none;" d="M357.333 99.6667C357.278 99.7222 357.222 100.778 357.667 100.333C357.722 100.278 357.778 99.2222 357.333 99.6667z"/>
<path style="fill:#303030; stroke:none;" d="M76 100L77 101L76 100z"/>
<path style="fill:#d0d0d0; stroke:none;" d="M77 100L78 101L77 100M99 100L100 101L99 100M104 100L105 101L104 100z"/>
<path style="fill:#606060; stroke:none;" d="M133 100L134 101L133 100z"/>
<path style="fill:#808080; stroke:none;" d="M162 100L162 103C162.696 101.446 162.696 101.554 162 100z"/>
<path style="fill:#707070; stroke:none;" d="M185 100L186 101L185 100z"/>
<path style="fill:#404040; stroke:none;" d="M208 100L209 101L208 100z"/>
<path style="fill:#909090; stroke:none;" d="M209.667 100.333C209.222 100.778 210.278 100.722 210.333 100.667C210.778 100.222 209.722 100.278 209.667 100.333z"/>
<path style="fill:#e0e0e0; stroke:none;" d="M211.667 100.333C211.222 100.778 212.278 100.722 212.333 100.667C212.778 100.222 211.722 100.278 211.667 100.333z"/>
<path style="fill:#c0c0c0; stroke:none;" d="M216 100L217 101L216 100z"/>
<path style="fill:#707070; stroke:none;" d="M217 100L218 101L217 100z"/>
<path style="fill:#606060; stroke:none;" d="M231 100L232 101L231 100M247 100L248 101L247 100z"/>
<path style="fill:#505050; stroke:none;" d="M289 100L290 101L289 100z"/>
<path style="fill:#909090; stroke:none;" d="M290 100L291 101L290 100z"/>
<path style="fill:#c0c0c0; stroke:none;" d="M291 100C292.248 100.685 292.548 100.749 294 101C292.752 100.315 292.452 100.251 291 100z"/>
<path style="fill:#505050; stroke:none;" d="M294 100L295 101L294 100z"/>
<path style="fill:#606060; stroke:none;" d="M330 100L331 101L330 100z"/>
<path style="fill:#505050; stroke:none;" d="M376 100L377 101L376 100z"/>
<path style="fill:#a0a0a0; stroke:none;" d="M386 100L387 101L386 100z"/>
<path style="fill:#303030; stroke:none;" d="M75 101L76 102L75 101z"/>
<path style="fill:#d0d0d0; stroke:none;" d="M93 101L94 102L93 101z"/>
<path style="fill:#808080; stroke:none;" d="M94 101L95 102L94 101z"/>
<path style="fill:#404040; stroke:none;" d="M95 101L96 102L95 101z"/>
<path style="fill:#a0a0a0; stroke:none;" d="M132 101L133 102L132 101z"/>
<path style="fill:#d0d0d0; stroke:none;" d="M185 101L186 102L185 101z"/>
<path style="fill:#303030; stroke:none;" d="M204 101L205 102L204 101z"/>
<path style="fill:#808080; stroke:none;" d="M205 101L206 102L205 101z"/>
<path style="fill:#c0c0c0; stroke:none;" d="M206 101L207 102L206 101z"/>
<path style="fill:#505050; stroke:none;" d="M219 101L220 102L219 101z"/>
<path style="fill:#606060; stroke:none;" d="M230 101L231 102L230 101z"/>
<path style="fill:#909090; stroke:none;" d="M235 101L236 102L235 101z"/>
<path style="fill:#606060; stroke:none;" d="M287 101L288 102L287 101z"/>
<path style="fill:#c0c0c0; stroke:none;" d="M295 101L296 102L295 101z"/>
<path style="fill:#303030; stroke:none;" d="M296 101L297 102L296 101z"/>
<path style="fill:#404040; stroke:none;" d="M329 101L330 102L329 101z"/>
<path style="fill:#c0c0c0; stroke:none;" d="M342 101L343 102L342 101z"/>
<path style="fill:#606060; stroke:none;" d="M343 101L344 102L343 101z"/>
<path style="fill:#000000; stroke:none;" d="M338 109C343.213 108.419 346.173 106.308 347 101C342.192 101.971 339.349 104.236 338 109z"/>
<path style="fill:#a0a0a0; stroke:none;" d="M347 101L348 102L347 101z"/>
<path style="fill:#b0b0b0; stroke:none;" d="M376 101L377 102L376 101z"/>
<path style="fill:#303030; stroke:none;" d="M386 101L387 102L386 101z"/>
<path style="fill:#606060; stroke:none;" d="M74 102L75 103L74 102z"/>
<path style="fill:#808080; stroke:none;" d="M91 102L92 103L91 102z"/>
<path style="fill:#d0d0d0; stroke:none;" d="M131 102L132 103L131 102z"/>
<path style="fill:#a0a0a0; stroke:none;" d="M149 102L150 103L149 102z"/>
<path style="fill:#404040; stroke:none;" d="M150 102C151.248 102.685 151.548 102.749 153 103C151.752 102.315 151.452 102.251 150 102z"/>
<path style="fill:#a0a0a0; stroke:none;" d="M153 102L154 103L153 102z"/>
<path style="fill:#c0c0c0; stroke:none;" d="M194 102L194 105C194.696 103.446 194.696 103.554 194 102z"/>
<path style="fill:#909090; stroke:none;" d="M202 102L203 103L202 102z"/>
<path style="fill:#303030; stroke:none;" d="M220 102L221 103L220 102z"/>
<path style="fill:#909090; stroke:none;" d="M229 102L230 103L229 102z"/>
<path style="fill:#606060; stroke:none;" d="M234 102L235 103L234 102z"/>
<path style="fill:#c0c0c0; stroke:none;" d="M246 102L247 103L246 102M286 102L287 103L286 102z"/>
<path style="fill:#606060; stroke:none;" d="M297 102L298 103L297 102z"/>
<path style="fill:#303030; stroke:none;" d="M328 102L329 103L328 102z"/>
<path style="fill:#707070; stroke:none;" d="M341 102L342 103L341 102z"/>
<path style="fill:#505050; stroke:none;" d="M347.333 102.667C347.278 102.722 347.222 103.778 347.667 103.333C347.722 103.278 347.778 102.222 347.333 102.667z"/>
<path style="fill:#d0d0d0; stroke:none;" d="M356 102L357 103L356 102z"/>
<path style="fill:#c0c0c0; stroke:none;" d="M385 102L386 103L385 102z"/>
<path style="fill:#505050; stroke:none;" d="M73 103L74 104L73 103z"/>
<path style="fill:#606060; stroke:none;" d="M89 103L90 104L89 103z"/>
<path style="fill:#303030; stroke:none;" d="M129 103L130 104L129 103z"/>
<path style="fill:#c0c0c0; stroke:none;" d="M146 103L147 104L146 103z"/>
<path style="fill:#505050; stroke:none;" d="M147 103L148 104L147 103z"/>
<path style="fill:#303030; stroke:none;" d="M154 103L155 104L154 103z"/>
<path style="fill:#404040; stroke:none;" d="M162 103L163 104L162 103z"/>
<path style="fill:#707070; stroke:none;" d="M184 103L185 104L184 103z"/>
<path style="fill:#404040; stroke:none;" d="M199 103L200 104L199 103z"/>
<path style="fill:#c0c0c0; stroke:none;" d="M200 103L201 104L200 103z"/>
<path style="fill:#b2b2b2; stroke:none;" d="M220 103L221 104L220 103z"/>
<path style="fill:#505050; stroke:none;" d="M227 103L228 104L227 103z"/>
<path style="fill:#d0d0d0; stroke:none;" d="M228 103L229 104L228 103z"/>
<path style="fill:#606060; stroke:none;" d="M233 103L234 104L233 103M246 103L247 104L246 103z"/>
<path style="fill:#505050; stroke:none;" d="M284 103L285 104L284 103z"/>
<path style="fill:#606060; stroke:none;" d="M298 103L299 104L298 103z"/>
<path style="fill:#303030; stroke:none;" d="M340 103L341 104L340 103z"/>
<path style="fill:#606060; stroke:none;" d="M356 103L357 104L356 103z"/>
<path style="fill:#707070; stroke:none;" d="M375 103L376 104L375 103z"/>
<path style="fill:#606060; stroke:none;" d="M385 103L386 104L385 103z"/>
<path style="fill:#303030; stroke:none;" d="M72 104L73 105L72 104z"/>
<path style="fill:#808080; stroke:none;" d="M87 104L88 105L87 104z"/>
<path style="fill:#606060; stroke:none;" d="M128 104L129 105L128 104z"/>
<path style="fill:#404040; stroke:none;" d="M145 104L146 105L145 104z"/>
<path style="fill:#606060; stroke:none;" d="M156 104L157 105L156 104z"/>
<path style="fill:#c0c0c0; stroke:none;" d="M157.667 104.333C157.222 104.778 158.278 104.722 158.333 104.667C158.778 104.222 157.722 104.278 157.667 104.333z"/>
<path style="fill:#d0d0d0; stroke:none;" d="M160 104L161 105L160 104z"/>
<path style="fill:#606060; stroke:none;" d="M161 104L162 105L161 104z"/>
<path style="fill:#c0c0c0; stroke:none;" d="M184 104L185 105L184 104z"/>
<path style="fill:#404040; stroke:none;" d="M197 104L198 105L197 104z"/>
<path style="fill:#c0c0c0; stroke:none;" d="M198 104L199 105L198 104z"/>
<path style="fill:#505050; stroke:none;" d="M232 104L233 105L232 104z"/>
<path style="fill:#404040; stroke:none;" d="M235 104L236 105L235 104z"/>
<path style="fill:#707070; stroke:none;" d="M283 104L284 105L283 104z"/>
<path style="fill:#606060; stroke:none;" d="M299 104L300 105L299 104z"/>
<path style="fill:#c0c0c0; stroke:none;" d="M327 104L328 105L327 104z"/>
<path style="fill:#303030; stroke:none;" d="M339 104L340 105L339 104z"/>
<path style="fill:#c0c0c0; stroke:none;" d="M347 104L348 105L347 104z"/>
<path style="fill:#d0d0d0; stroke:none;" d="M375 104L376 105L375 104M85 105L86 106L85 105z"/>
<path style="fill:#909090; stroke:none;" d="M127 105L128 106L127 105z"/>
<path style="fill:#808080; stroke:none;" d="M143 105L144 106L143 105z"/>
<path style="fill:#909090; stroke:none;" d="M194.333 105.667C194.278 105.722 194.222 106.778 194.667 106.333C194.722 106.278 194.778 105.222 194.333 105.667z"/>
<path style="fill:#b0b0b0; stroke:none;" d="M196 105L197 106L196 105z"/>
<path style="fill:#303030; stroke:none;" d="M231 105L232 106L231 105z"/>
<path style="fill:#707070; stroke:none;" d="M235 105L236 106L235 105z"/>
<path style="fill:#a0a0a0; stroke:none;" d="M245 105L246 106L245 105z"/>
<path style="fill:#606060; stroke:none;" d="M257 105L258 106L257 105z"/>
<path style="fill:#b0b0b0; stroke:none;" d="M258 105L259 106L258 105z"/>
<path style="fill:#909090; stroke:none;" d="M262 105L263 106L262 105z"/>
<path style="fill:#a0a0a0; stroke:none;" d="M282 105L283 106L282 105z"/>
<path style="fill:#404040; stroke:none;" d="M300 105L301 106L300 105z"/>
<path style="fill:#707070; stroke:none;" d="M326 105L327 106L326 105z"/>
<path style="fill:#606060; stroke:none;" d="M338 105L339 106L338 105M346 105L347 106L346 105z"/>
<path style="fill:#505050; stroke:none;" d="M355 105L356 106L355 105z"/>
<path style="fill:#303030; stroke:none;" d="M374 105L375 106L374 105z"/>
<path style="fill:#808080; stroke:none;" d="M384 105L385 106L384 105z"/>
<path style="fill:#d0d0d0; stroke:none;" d="M71 106L72 107L71 106z"/>
<path style="fill:#909090; stroke:none;" d="M84 106L85 107L84 106z"/>
<path style="fill:#a0a0a0; stroke:none;" d="M126 106L127 107L126 106z"/>
<path style="fill:#303030; stroke:none;" d="M142 106L143 107L142 106z"/>
<path style="fill:#606060; stroke:none;" d="M183 106L184 107L183 106z"/>
<path style="fill:#909090; stroke:none;" d="M229 106L230 107L229 106z"/>
<path style="fill:#a0a0a0; stroke:none;" d="M235 106L236 107L235 106z"/>
<path style="fill:#404040; stroke:none;" d="M245 106L246 107L245 106M255 106L256 107L255 106z"/>
<path style="fill:#d0d0d0; stroke:none;" d="M263 106L264 107L263 106z"/>
<path style="fill:#a0a0a0; stroke:none;" d="M281 106L282 107L281 106z"/>
<path style="fill:#303030; stroke:none;" d="M301 106L302 107L301 106z"/>
<path style="fill:#606060; stroke:none;" d="M345 106L346 107L345 106z"/>
<path style="fill:#b0b0b0; stroke:none;" d="M354 106L355 107L354 106z"/>
<path style="fill:#909090; stroke:none;" d="M374 106L375 107L374 106z"/>
<path style="fill:#808080; stroke:none;" d="M70 107L71 108L70 107z"/>
<path style="fill:#606060; stroke:none;" d="M83 107L84 108L83 107z"/>
<path style="fill:#d0d0d0; stroke:none;" d="M125 107L126 108L125 107z"/>
<path style="fill:#b0b0b0; stroke:none;" d="M140 107L141 108L140 107z"/>
<path style="fill:#a0a0a0; stroke:none;" d="M183 107L184 108L183 107z"/>
<path style="fill:#c0c0c0; stroke:none;" d="M221 107C222.248 107.685 222.548 107.749 224 108C222.752 107.315 222.452 107.251 221 107M225.667 107.333C225.222 107.778 226.278 107.722 226.333 107.667C226.778 107.222 225.722 107.278 225.667 107.333z"/>
<path style="fill:#909090; stroke:none;" d="M227 107L228 108L227 107M254 107L255 108L254 107z"/>
<path style="fill:#c0c0c0; stroke:none;" d="M264 107L265 108L264 107z"/>
<path style="fill:#a0a0a0; stroke:none;" d="M280 107L281 108L280 107z"/>
<path style="fill:#d0d0d0; stroke:none;" d="M301 107L302 108L301 107z"/>
<path style="fill:#808080; stroke:none;" d="M325 107L326 108L325 107z"/>
<path style="fill:#909090; stroke:none;" d="M337 107L338 108L337 107z"/>
<path style="fill:#707070; stroke:none;" d="M344 107L345 108L344 107z"/>
<path style="fill:#b0b0b0; stroke:none;" d="M383 107L384 108L383 107z"/>
<path style="fill:#303030; stroke:none;" d="M69 108L70 109L69 108z"/>
<path style="fill:#606060; stroke:none;" d="M82 108L83 109L82 108z"/>
<path style="fill:#303030; stroke:none;" d="M123 108L124 109L123 108z"/>
<path style="fill:#d0d0d0; stroke:none;" d="M124 108L125 109L124 108z"/>
<path style="fill:#808080; stroke:none;" d="M139 108L140 109L139 108z"/>
<path style="fill:#e0e0e0; stroke:none;" d="M211.667 108.333C211.222 108.778 212.278 108.722 212.333 108.667C212.778 108.222 211.722 108.278 211.667 108.333z"/>
<path style="fill:#a0a0a0; stroke:none;" d="M220 108L221 109L220 108z"/>
<path style="fill:#606060; stroke:none;" d="M244 108L245 109L244 108z"/>
<path style="fill:#303030; stroke:none;" d="M252 108L253 109L252 108z"/>
<path style="fill:#d0d0d0; stroke:none;" d="M253 108L254 109L253 108z"/>
<path style="fill:#606060; stroke:none;" d="M265 108L266 109L265 108M279 108L280 109L279 108z"/>
<path style="fill:#a0a0a0; stroke:none;" d="M302 108L303 109L302 108z"/>
<path style="fill:#c0c0c0; stroke:none;" d="M337 108L338 109L337 108z"/>
<path style="fill:#404040; stroke:none;" d="M342 108L343 109L342 108z"/>
<path style="fill:#c0c0c0; stroke:none;" d="M343 108L344 109L343 108z"/>
<path style="fill:#303030; stroke:none;" d="M353 108L354 109L353 108M373 108L374 109L373 108z"/>
<path style="fill:#404040; stroke:none;" d="M383 108L384 109L383 108z"/>
<path style="fill:#c0c0c0; stroke:none;" d="M69 109L70 110L69 109z"/>
<path style="fill:#606060; stroke:none;" d="M81 109L82 110L81 109z"/>
<path style="fill:#303030; stroke:none;" d="M122 109L123 110L122 109z"/>
<path style="fill:#606060; stroke:none;" d="M138 109L139 110L138 109z"/>
<path style="fill:#505050; stroke:none;" d="M154 109L155 110L154 109z"/>
<path style="fill:#808080; stroke:none;" d="M155 109C156.248 109.685 156.548 109.749 158 110C156.752 109.315 156.452 109.251 155 109z"/>
<path style="fill:#505050; stroke:none;" d="M158 109L159 110L158 109z"/>
<path style="fill:#404040; stroke:none;" d="M182 109L183 110L182 109z"/>
<path style="fill:#d0d0d0; stroke:none;" d="M206 109L207 110L206 109z"/>
<path style="fill:#808080; stroke:none;" d="M207 109L208 110L207 109z"/>
<path style="fill:#404040; stroke:none;" d="M208 109L209 110L208 109z"/>
<path style="fill:#707070; stroke:none;" d="M214 109L215 110L214 109z"/>
<path style="fill:#404040; stroke:none;" d="M220 109L221 110L220 109z"/>
<path style="fill:#606060; stroke:none;" d="M234 109L235 110L234 109z"/>
<path style="fill:#505050; stroke:none;" d="M251 109L252 110L251 109z"/>
<path style="fill:#606060; stroke:none;" d="M278 109L279 110L278 109M303 109L304 110L303 109z"/>
<path style="fill:#808080; stroke:none;" d="M324 109L325 110L324 109z"/>
<path style="fill:#c0c0c0; stroke:none;" d="M338 109L339 110L338 109z"/>
<path style="fill:#909090; stroke:none;" d="M339.667 109.333C339.222 109.778 340.278 109.722 340.333 109.667C340.778 109.222 339.722 109.278 339.667 109.333z"/>
<path style="fill:#d0d0d0; stroke:none;" d="M341 109L342 110L341 109z"/>
<path style="fill:#303030; stroke:none;" d="M352 109L353 110L352 109z"/>
<path style="fill:#a0a0a0; stroke:none;" d="M373 109L374 110L373 109z"/>
<path style="fill:#606060; stroke:none;" d="M68 110L69 111L68 110z"/>
<path style="fill:#707070; stroke:none;" d="M80 110L81 111L80 110z"/>
<path style="fill:#303030; stroke:none;" d="M121 110L122 111L121 110M137 110L138 111L137 110z"/>
<path style="fill:#606060; stroke:none;" d="M151 110L152 111L151 110z"/>
<path style="fill:#d0d0d0; stroke:none;" d="M152 110L153 111L152 110M159 110L160 111L159 110z"/>
<path style="fill:#808080; stroke:none;" d="M182 110L183 111L182 110z"/>
<path style="fill:#909090; stroke:none;" d="M204 110L205 111L204 110z"/>
<path style="fill:#a0a0a0; stroke:none;" d="M234 110L235 111L234 110M243 110L244 111L243 110z"/>
<path style="fill:#606060; stroke:none;" d="M250 110L251 111L250 110z"/>
<path style="fill:#404040; stroke:none;" d="M277 110L278 111L277 110z"/>
<path style="fill:#303030; stroke:none;" d="M351 110L352 111L351 110z"/>
<path style="fill:#707070; stroke:none;" d="M382 110L383 111L382 110z"/>
<path style="fill:#b0b0b0; stroke:none;" d="M79 111L80 112L79 111z"/>
<path style="fill:#303030; stroke:none;" d="M120 111L121 112L120 111z"/>
<path style="fill:#d0d0d0; stroke:none;" d="M135 111L136 112L135 111z"/>
<path style="fill:#303030; stroke:none;" d="M136 111L137 112L136 111z"/>
<path style="fill:#808080; stroke:none;" d="M149 111L150 112L149 111z"/>
<path style="fill:#d0d0d0; stroke:none;" d="M160 111L161 112L160 111M182 111L183 112L182 111z"/>
<path style="fill:#808080; stroke:none;" d="M202 111L203 112L202 111z"/>
<path style="fill:#606060; stroke:none;" d="M214 111L215 112L214 111z"/>
<path style="fill:#505050; stroke:none;" d="M219 111L220 112L219 111z"/>
<path style="fill:#909090; stroke:none;" d="M249 111L250 112L249 111z"/>
<path style="fill:#808080; stroke:none;" d="M266.333 111.667C266.278 111.722 266.222 112.778 266.667 112.333C266.722 112.278 266.778 111.222 266.333 111.667z"/>
<path style="fill:#303030; stroke:none;" d="M276 111L277 112L276 111z"/>
<path style="fill:#c0c0c0; stroke:none;" d="M304 111L305 112L304 111z"/>
<path style="fill:#606060; stroke:none;" d="M323 111L324 112L323 111z"/>
<path style="fill:#c0c0c0; stroke:none;" d="M349 111L350 112L349 111z"/>
<path style="fill:#505050; stroke:none;" d="M372 111L373 112L372 111M67 112L68 113L67 112z"/>
<path style="fill:#303030; stroke:none;" d="M119 112L120 113L119 112z"/>
<path style="fill:#d0d0d0; stroke:none;" d="M134 112L135 113L134 112z"/>
<path style="fill:#808080; stroke:none;" d="M147 112L148 113L147 112z"/>
<path style="fill:#505050; stroke:none;" d="M161 112L162 113L161 112z"/>
<path style="fill:#b0b0b0; stroke:none;" d="M200 112L201 113L200 112M218 112L219 113L218 112z"/>
<path style="fill:#303030; stroke:none;" d="M233 112L234 113L233 112z"/>
<path style="fill:#c0c0c0; stroke:none;" d="M242 112L243 113L242 112z"/>
<path style="fill:#a0a0a0; stroke:none;" d="M248 112L249 113L248 112z"/>
<path style="fill:#707070; stroke:none;" d="M305 112L306 113L305 112z"/>
<path style="fill:#b0b0b0; stroke:none;" d="M323 112L324 113L323 112z"/>
<path style="fill:#707070; stroke:none;" d="M348 112L349 113L348 112z"/>
<path style="fill:#a6a6a6; stroke:none;" d="M372 112L373 113L372 112z"/>
<path style="fill:#b0b0b0; stroke:none;" d="M381 112L382 113L381 112z"/>
<path style="fill:#c0c0c0; stroke:none;" d="M67 113L68 114L67 113z"/>
<path style="fill:#707070; stroke:none;" d="M78 113L79 114L78 113z"/>
<path style="fill:#303030; stroke:none;" d="M118 113L119 114L118 113z"/>
<path style="fill:#d0d0d0; stroke:none;" d="M133 113L134 114L133 113z"/>
<path style="fill:#606060; stroke:none;" d="M145 113L146 114L145 113z"/>
<path style="fill:#808080; stroke:none;" d="M161 113L162 114L161 113z"/>
<path style="fill:#606060; stroke:none;" d="M181 113L182 114L181 113z"/>
<path style="fill:#505050; stroke:none;" d="M199 113L200 114L199 113z"/>
<path style="fill:#c0c0c0; stroke:none;" d="M213 113L214 114L213 113z"/>
<path style="fill:#d0d0d0; stroke:none;" d="M217 113L218 114L217 113z"/>
<path style="fill:#707070; stroke:none;" d="M233 113L234 114L233 113z"/>
<path style="fill:#606060; stroke:none;" d="M242 113L243 114L242 113z"/>
<path style="fill:#a0a0a0; stroke:none;" d="M247 113L248 114L247 113z"/>
<path style="fill:#d0d0d0; stroke:none;" d="M266.333 113.667C266.278 113.722 266.222 114.778 266.667 114.333C266.722 114.278 266.778 113.222 266.333 113.667M275 113L276 114L275 113z"/>
<path style="fill:#808080; stroke:none;" d="M346 113L347 114L346 113z"/>
<path style="fill:#505050; stroke:none;" d="M381 113L382 114L381 113z"/>
<path style="fill:#303030; stroke:none;" d="M117 114L118 115L117 114z"/>
<path style="fill:#d0d0d0; stroke:none;" d="M132 114L133 115L132 114z"/>
<path style="fill:#404040; stroke:none;" d="M143 114L144 115L143 114z"/>
<path style="fill:#d0d0d0; stroke:none;" d="M144 114L145 115L144 114z"/>
<path style="fill:#c0c0c0; stroke:none;" d="M161 114L161 117C161.696 115.446 161.696 115.554 161 114z"/>
<path style="fill:#a0a0a0; stroke:none;" d="M181 114L182 115L181 114z"/>
<path style="fill:#d0d0d0; stroke:none;" d="M197 114L198 115L197 114z"/>
<path style="fill:#909090; stroke:none;" d="M212 114L213 115L212 114z"/>
<path style="fill:#303030; stroke:none;" d="M217 114L218 115L217 114z"/>
<path style="fill:#c0c0c0; stroke:none;" d="M233 114L234 115L233 114z"/>
<path style="fill:#a0a0a0; stroke:none;" d="M246 114L247 115L246 114z"/>
<path style="fill:#c0c0c0; stroke:none;" d="M274 114L275 115L274 114z"/>
<path style="fill:#909090; stroke:none;" d="M288 114L289 115L288 114z"/>
<path style="fill:#404040; stroke:none;" d="M289 114C290.248 114.685 290.548 114.749 292 115C290.752 114.315 290.452 114.251 289 114z"/>
<path style="fill:#b0b0b0; stroke:none;" d="M292 114L293 115L292 114z"/>
<path style="fill:#c0c0c0; stroke:none;" d="M306 114L307 115L306 114z"/>
<path style="fill:#606060; stroke:none;" d="M322 114L323 115L322 114z"/>
<path style="fill:#d0d0d0; stroke:none;" d="M333 114L334 115L333 114z"/>
<path style="fill:#b0b0b0; stroke:none;" d="M343 114L344 115L343 114z"/>
<path style="fill:#606060; stroke:none;" d="M344 114L345 115L344 114z"/>
<path style="fill:#303030; stroke:none;" d="M370 114L369 116C370.263 115.029 370.392 115.306 370 114z"/>
<path style="fill:#707070; stroke:none;" d="M66 115L67 116L66 115z"/>
<path style="fill:#808080; stroke:none;" d="M77 115L78 116L77 115z"/>
<path style="fill:#303030; stroke:none;" d="M116 115L117 116L116 115z"/>
<path style="fill:#d0d0d0; stroke:none;" d="M131 115L132 116L131 115z"/>
<path style="fill:#a0a0a0; stroke:none;" d="M142 115L143 116L142 115z"/>
<path style="fill:#c0c0c0; stroke:none;" d="M196 115L197 116L196 115z"/>
<path style="fill:#606060; stroke:none;" d="M211 115L212 116L211 115z"/>
<path style="fill:#d0d0d0; stroke:none;" d="M215 115L216 116L215 115z"/>
<path style="fill:#a0a0a0; stroke:none;" d="M241.333 115.667C241.278 115.722 241.222 116.778 241.667 116.333C241.722 116.278 241.778 115.222 241.333 115.667M245 115L246 116L245 115M273 115L274 116L273 115z"/>
<path style="fill:#909090; stroke:none;" d="M286 115L287 116L286 115z"/>
<path style="fill:#606060; stroke:none;" d="M293 115L294 116L293 115M307 115L308 116L307 115z"/>
<path style="fill:#b0b0b0; stroke:none;" d="M322 115L323 116L322 115z"/>
<path style="fill:#606060; stroke:none;" d="M332 115L333 116L332 115z"/>
<path style="fill:#505050; stroke:none;" d="M335.667 115.333C335.222 115.778 336.278 115.722 336.333 115.667C336.778 115.222 335.722 115.278 335.667 115.333z"/>
<path style="fill:#808080; stroke:none;" d="M337 115C338.248 115.685 338.548 115.749 340 116C338.752 115.315 338.452 115.251 337 115z"/>
<path style="fill:#303030; stroke:none;" d="M340.667 115.333C340.222 115.778 341.278 115.722 341.333 115.667C341.778 115.222 340.722 115.278 340.667 115.333z"/>
<path style="fill:#d0d0d0; stroke:none;" d="M370 115L370 117L372 117L372 115L370 115z"/>
<path style="fill:#909090; stroke:none;" d="M380 115L381 116L380 115z"/>
<path style="fill:#c0c0c0; stroke:none;" d="M66 116L67 117L66 116z"/>
<path style="fill:#303030; stroke:none;" d="M77 116L78 117L77 116z"/>
<path style="fill:#d0d0d0; stroke:none;" d="M130 116L131 117L130 116z"/>
<path style="fill:#505050; stroke:none;" d="M140 116L141 117L140 116z"/>
<path style="fill:#b0b0b0; stroke:none;" d="M195 116L196 117L195 116z"/>
<path style="fill:#909090; stroke:none;" d="M210 116L211 117L210 116M214 116L215 117L214 116z"/>
<path style="fill:#606060; stroke:none;" d="M232 116L233 117L232 116z"/>
<path style="fill:#404040; stroke:none;" d="M243 116L244 117L243 116z"/>
<path style="fill:#d0d0d0; stroke:none;" d="M244 116L245 117L244 116z"/>
<path style="fill:#c0c0c0; stroke:none;" d="M255.667 116.333C255.222 116.778 256.278 116.722 256.333 116.667C256.778 116.222 255.722 116.278 255.667 116.333z"/>
<path style="fill:#505050; stroke:none;" d="M267 116L268 117L267 116z"/>
<path style="fill:#a0a0a0; stroke:none;" d="M272 116L273 117L272 116z"/>
<path style="fill:#404040; stroke:none;" d="M285 116L286 117L285 116z"/>
<path style="fill:#707070; stroke:none;" d="M294 116L295 117L294 116z"/>
<path style="fill:#303030; stroke:none;" d="M368 116L369 117L368 116M380 116L381 117L380 116z"/>
<path style="fill:#505050; stroke:none;" d="M412 116L413 117L412 116M414 116L415 117L414 116z"/>
<path style="fill:#d0d0d0; stroke:none;" d="M115 117L116 118L115 117M129 117L130 118L129 117z"/>
<path style="fill:#b0b0b0; stroke:none;" d="M139 117L140 118L139 117z"/>
<path style="fill:#808080; stroke:none;" d="M161 117L161 120C161.696 118.446 161.696 118.554 161 117z"/>
<path style="fill:#606060; stroke:none;" d="M180 117L181 118L180 117z"/>
<path style="fill:#d0d0d0; stroke:none;" d="M194 117L195 118L194 117z"/>
<path style="fill:#b0b0b0; stroke:none;" d="M209 117L210 118L209 117z"/>
<path style="fill:#c0c0c0; stroke:none;" d="M212 117L213 118L212 117z"/>
<path style="fill:#404040; stroke:none;" d="M213 117L214 118L213 117z"/>
<path style="fill:#a0a0a0; stroke:none;" d="M232 117L233 118L232 117z"/>
<path style="fill:#d0d0d0; stroke:none;" d="M242 117L243 118L242 117z"/>
<path style="fill:#909090; stroke:none;" d="M253 117L254 118L253 117z"/>
<path style="fill:#a0a0a0; stroke:none;" d="M258 117L259 118L258 117z"/>
<path style="fill:#c0c0c0; stroke:none;" d="M267 117L268 118L267 117z"/>
<path style="fill:#b0b0b0; stroke:none;" d="M271 117L272 118L271 117z"/>
<path style="fill:#303030; stroke:none;" d="M284 117L285 118L284 117z"/>
<path style="fill:#c0c0c0; stroke:none;" d="M295 117L296 118L295 117z"/>
<path style="fill:#909090; stroke:none;" d="M308 117L309 118L308 117z"/>
<path style="fill:#707070; stroke:none;" d="M331 117L332 118L331 117z"/>
<path style="fill:#606060; stroke:none;" d="M367 117L368 118L367 117z"/>
<path style="fill:#707070; stroke:none;" d="M370 117L369 119L371 119C371 117.147 371.3 117.65 370 117z"/>
<path style="fill:#d0d0d0; stroke:none;" d="M379 117L380 118L379 117z"/>
<path style="fill:#a0a0a0; stroke:none;" d="M411 117L412 118L411 117z"/>
<path style="fill:#606060; stroke:none;" d="M65.3333 118.667C65.2778 118.722 65.2222 119.778 65.6667 119.333C65.7222 119.278 65.7778 118.222 65.3333 118.667z"/>
<path style="fill:#c0c0c0; stroke:none;" d="M76 118L76 122C76.7102 120.241 76.7102 119.759 76 118z"/>
<path style="fill:#a0a0a0; stroke:none;" d="M114 118L115 119L114 118z"/>
<path style="fill:#d0d0d0; stroke:none;" d="M128 118L129 119L128 118z"/>
<path style="fill:#505050; stroke:none;" d="M137 118L138 119L137 118z"/>
<path style="fill:#a0a0a0; stroke:none;" d="M180 118L181 119L180 118z"/>
<path style="fill:#303030; stroke:none;" d="M194 118L195 119L194 118z"/>
<path style="fill:#404040; stroke:none;" d="M207 118L208 119L207 118z"/>
<path style="fill:#b0b0b0; stroke:none;" d="M210 118L211 119L210 118z"/>
<path style="fill:#404040; stroke:none;" d="M211 118L212 119L211 118z"/>
<path style="fill:#c0c0c0; stroke:none;" d="M251 118L252 119L251 118z"/>
<path style="fill:#909090; stroke:none;" d="M268.667 118.333C268.222 118.778 269.278 118.722 269.333 118.667C269.778 118.222 268.722 118.278 268.667 118.333z"/>
<path style="fill:#303030; stroke:none;" d="M283 118L284 119L283 118z"/>
<path style="fill:#d0d0d0; stroke:none;" d="M296 118L297 119L296 118z"/>
<path style="fill:#404040; stroke:none;" d="M309 118L310 119L309 118z"/>
<path style="fill:#505050; stroke:none;" d="M321.333 118.667C321.278 118.722 321.222 119.778 321.667 119.333C321.722 119.278 321.778 118.222 321.333 118.667z"/>
<path style="fill:#707070; stroke:none;" d="M366 118L367 119L366 118M379 118L380 119L379 118z"/>
<path style="fill:#303030; stroke:none;" d="M409 118L410 119L409 118M413 118L414 119L413 118z"/>
<path style="fill:#7e7e7e; stroke:none;" d="M113 119L114 120L113 119z"/>
<path style="fill:#a0a0a0; stroke:none;" d="M136 119L137 120L136 119z"/>
<path style="fill:#707070; stroke:none;" d="M193 119L194 120L193 119z"/>
<path style="fill:#505050; stroke:none;" d="M206 119L207 120L206 119z"/>
<path style="fill:#a0a0a0; stroke:none;" d="M207 119L208 120L207 119z"/>
<path style="fill:#606060; stroke:none;" d="M208 119L209 120L208 119z"/>
<path style="fill:#505050; stroke:none;" d="M231 119L232 120L231 119z"/>
<path style="fill:#707070; stroke:none;" d="M250 119L251 120L250 119z"/>
<path style="fill:#c0c0c0; stroke:none;" d="M259 119L259 127C260.161 124.23 260.161 121.77 259 119z"/>
<path style="fill:#303030; stroke:none;" d="M282 119L283 120L282 119z"/>
<path style="fill:#404040; stroke:none;" d="M296 119L297 120L296 119z"/>
<path style="fill:#d0d0d0; stroke:none;" d="M309 119L310 120L309 119z"/>
<path style="fill:#b0b0b0; stroke:none;" d="M330 119L331 120L330 119z"/>
<path style="fill:#a0a0a0; stroke:none;" d="M365 119L366 120L365 119z"/>
<path style="fill:#b0b0b0; stroke:none;" d="M368 119L369 120L368 119z"/>
<path style="fill:#c0c0c0; stroke:none;" d="M370 119L371 120L370 119z"/>
<path style="fill:#303030; stroke:none;" d="M379 119L380 120L379 119z"/>
<path style="fill:#808080; stroke:none;" d="M408 119L409 120L408 119z"/>
<path style="fill:#606060; stroke:none;" d="M412 119L413 120L412 119z"/>
<path style="fill:#808080; stroke:none;" d="M65 120L65 125C65.8299 122.97 65.8299 122.03 65 120z"/>
<path style="fill:#909090; stroke:none;" d="M112 120L113 121L112 120z"/>
<path style="fill:#505050; stroke:none;" d="M127 120L128 121L127 120z"/>
<path style="fill:#303030; stroke:none;" d="M134 120L135 121L134 120z"/>
<path style="fill:#d0d0d0; stroke:none;" d="M135 120L136 121L135 120z"/>
<path style="fill:#404040; stroke:none;" d="M161 120L161 125C161.83 122.969 161.83 122.03 161 120z"/>
<path style="fill:#303030; stroke:none;" d="M179 120L180 121L179 120z"/>
<path style="fill:#d0d0d0; stroke:none;" d="M192 120L193 121L192 120z"/>
<path style="fill:#a0a0a0; stroke:none;" d="M231 120L232 121L231 120z"/>
<path style="fill:#303030; stroke:none;" d="M249 120L250 121L249 120M281 120L282 121L281 120z"/>
<path style="fill:#a0a0a0; stroke:none;" d="M297 120L298 121L297 120z"/>
<path style="fill:#707070; stroke:none;" d="M310 120L311 121L310 120z"/>
<path style="fill:#808080; stroke:none;" d="M321 120L321 123C321.696 121.446 321.696 121.554 321 120z"/>
<path style="fill:#707070; stroke:none;" d="M330 120L331 121L330 120z"/>
<path style="fill:#d0d0d0; stroke:none;" d="M364 120L365 121L364 120z"/>
<path style="fill:#c0c0c0; stroke:none;" d="M407 120L408 121L407 120z"/>
<path style="fill:#606060; stroke:none;" d="M411 120L412 121L411 120z"/>
<path style="fill:#a0a0a0; stroke:none;" d="M111 121L112 122L111 121M126 121L127 122L126 121z"/>
<path style="fill:#707070; stroke:none;" d="M133 121L134 122L133 121z"/>
<path style="fill:#a0a0a0; stroke:none;" d="M145 121L146 122L145 121z"/>
<path style="fill:#404040; stroke:none;" d="M146.667 121.333C146.222 121.778 147.278 121.722 147.333 121.667C147.778 121.222 146.722 121.278 146.667 121.333z"/>
<path style="fill:#d0d0d0; stroke:none;" d="M148 121L149 122L148 121z"/>
<path style="fill:#707070; stroke:none;" d="M179 121L180 122L179 121z"/>
<path style="fill:#404040; stroke:none;" d="M192 121L193 122L192 121z"/>
<path style="fill:#303030; stroke:none;" d="M248 121L249 122L248 121z"/>
<path style="fill:#606060; stroke:none;" d="M280 121L281 122L280 121z"/>
<path style="fill:#404040; stroke:none;" d="M330 121L331 122L330 121z"/>
<path style="fill:#303030; stroke:none;" d="M362 121L363 122L362 121M367 121L368 122L367 121z"/>
<path style="fill:#505050; stroke:none;" d="M369 121L370 122L369 121z"/>
<path style="fill:#909090; stroke:none;" d="M378 121L379 122L378 121z"/>
<path style="fill:#606060; stroke:none;" d="M405 121L406 122L405 121z"/>
<path style="fill:#a0a0a0; stroke:none;" d="M410 121L411 122L410 121z"/>
<path style="fill:#303030; stroke:none;" d="M109 122L110 123L109 122z"/>
<path style="fill:#d6d6d6; stroke:none;" d="M109 125C110.457 123.897 110.897 123.457 112 122C109.876 122.899 109.899 122.876 109 125z"/>
<path style="fill:#b0b0b0; stroke:none;" d="M132 122L133 123L132 122z"/>
<path style="fill:#a0a0a0; stroke:none;" d="M143 122L144 123L143 122z"/>
<path style="fill:#b0b0b0; stroke:none;" d="M179 122L180 123L179 122z"/>
<path style="fill:#c0c0c0; stroke:none;" d="M191 122L192 123L191 122z"/>
<path style="fill:#505050; stroke:none;" d="M230 122L231 123L230 122z"/>
<path style="fill:#303030; stroke:none;" d="M247 122L248 123L247 122z"/>
<path style="fill:#909090; stroke:none;" d="M279 122L280 123L279 122z"/>
<path style="fill:#707070; stroke:none;" d="M298 122L299 123L298 122z"/>
<path style="fill:#a0a0a0; stroke:none;" d="M311 122L312 123L311 122z"/>
<path style="fill:#606060; stroke:none;" d="M361 122L362 123L361 122z"/>
<path style="fill:#707070; stroke:none;" d="M366 122L367 123L366 122z"/>
<path style="fill:#909090; stroke:none;" d="M369 122L370 123L369 122z"/>
<path style="fill:#505050; stroke:none;" d="M378 122L379 123L378 122z"/>
<path style="fill:#b0b0b0; stroke:none;" d="M404 122L405 123L404 122z"/>
<path style="fill:#a0a0a0; stroke:none;" d="M409 122L410 123L409 122z"/>
<path style="fill:#303030; stroke:none;" d="M77 123L78 124L77 123z"/>
<path style="fill:#606060; stroke:none;" d="M108 123L109 124L108 123z"/>
<path style="fill:#707070; stroke:none;" d="M130 123L131 124L130 123z"/>
<path style="fill:#d0d0d0; stroke:none;" d="M141 123L142 124L141 123z"/>
<path style="fill:#404040; stroke:none;" d="M142 123L143 124L142 123M149 123L150 124L149 123z"/>
<path style="fill:#303030; stroke:none;" d="M191 123L192 124L191 123z"/>
<path style="fill:#a0a0a0; stroke:none;" d="M230 123L231 124L230 123z"/>
<path style="fill:#303030; stroke:none;" d="M246 123L247 124L246 123z"/>
<path style="fill:#c0c0c0; stroke:none;" d="M278 123L279 124L278 123M299 123L300 124L299 123z"/>
<path style="fill:#404040; stroke:none;" d="M312 123L313 124L312 123z"/>
<path style="fill:#202020; stroke:none;" d="M321.333 123.667C321.278 123.722 321.222 124.778 321.667 124.333C321.722 124.278 321.778 123.222 321.333 123.667z"/>
<path style="fill:#909090; stroke:none;" d="M360 123L361 124L360 123z"/>
<path style="fill:#a0a0a0; stroke:none;" d="M365 123L366 124L365 123z"/>
<path style="fill:#d0d0d0; stroke:none;" d="M369 123L370 124L369 123z"/>
<path style="fill:#505050; stroke:none;" d="M402 123L403 124L402 123z"/>
<path style="fill:#c0c0c0; stroke:none;" d="M408 123L409 124L408 123z"/>
<path style="fill:#a0a0a0; stroke:none;" d="M77 124L78 125L77 124z"/>
<path style="fill:#b0b0b0; stroke:none;" d="M107 124L108 125L107 124z"/>
<path style="fill:#a6a6a6; stroke:none;" d="M110 124L111 125L110 124z"/>
<path style="fill:#808080; stroke:none;" d="M126 124L127 125L126 124z"/>
<path style="fill:#404040; stroke:none;" d="M127 124L128 125L127 124z"/>
<path style="fill:#909090; stroke:none;" d="M128 124L129 125L128 124z"/>
<path style="fill:#808080; stroke:none;" d="M140 124L141 125L140 124z"/>
<path style="fill:#b0b0b0; stroke:none;" d="M150 124L151 125L150 124z"/>
<path style="fill:#303030; stroke:none;" d="M178 124L179 125L178 124z"/>
<path style="fill:#b0b0b0; stroke:none;" d="M190 124L191 125L190 124z"/>
<path style="fill:#303030; stroke:none;" d="M245 124L246 125L245 124z"/>
<path style="fill:#d0d0d0; stroke:none;" d="M312 124L313 125L312 124M359 124L360 125L359 124M364 124L365 125L364 124z"/>
<path style="fill:#909090; stroke:none;" d="M401 124L402 125L401 124z"/>
<path style="fill:#d0d0d0; stroke:none;" d="M407 124L408 125L407 124z"/>
<path style="fill:#404040; stroke:none;" d="M65 125L66 126L65 125M105 125L106 126L105 125z"/>
<path style="fill:#d0d0d0; stroke:none;" d="M108 125L109 126L108 125z"/>
<path style="fill:#2e2e2e; stroke:none;" d="M109 125L110 126L109 125z"/>
<path style="fill:#d0d0d0; stroke:none;" d="M138 125L139 126L138 125z"/>
<path style="fill:#303030; stroke:none;" d="M139 125L140 126L139 125z"/>
<path style="fill:#a0a0a0; stroke:none;" d="M161.333 125.667C161.278 125.722 161.222 126.778 161.667 126.333C161.722 126.278 161.778 125.222 161.333 125.667z"/>
<path style="fill:#707070; stroke:none;" d="M178 125L179 126L178 125z"/>
<path style="fill:#404040; stroke:none;" d="M190 125L191 126L190 125z"/>
<path style="fill:#505050; stroke:none;" d="M229 125L230 126L229 125z"/>
<path style="fill:#606060; stroke:none;" d="M244 125L245 126L244 125z"/>
<path style="fill:#404040; stroke:none;" d="M277 125L278 126L277 125z"/>
<path style="fill:#505050; stroke:none;" d="M300 125L301 126L300 125z"/>
<path style="fill:#808080; stroke:none;" d="M313 125L314 126L313 125z"/>
<path style="fill:#303030; stroke:none;" d="M330 125L331 126L330 125z"/>
<path style="fill:#505050; stroke:none;" d="M357 125L358 126L357 125z"/>
<path style="fill:#404040; stroke:none;" d="M368 125L369 126L368 125z"/>
<path style="fill:#b0b0b0; stroke:none;" d="M377 125L378 126L377 125z"/>
<path style="fill:#404040; stroke:none;" d="M399 125L400 126L399 125z"/>
<path style="fill:#d0d0d0; stroke:none;" d="M406 125L407 126L406 125z"/>
<path style="fill:#b0b0b0; stroke:none;" d="M78 126L79 127L78 126M104 126L105 127L104 126z"/>
<path style="fill:#202020; stroke:none;" d="M108 126L107 128L109 128C109 126.147 109.3 126.65 108 126z"/>
<path style="fill:#a0a0a0; stroke:none;" d="M109 126L110 127L109 126z"/>
<path style="fill:#909090; stroke:none;" d="M137 126L138 127L137 126z"/>
<path style="fill:#b0b0b0; stroke:none;" d="M151 126L152 127L151 126z"/>
<path style="fill:#bfbfbf; stroke:none;" d="M178 126L179 127L178 126z"/>
<path style="fill:#c0c0c0; stroke:none;" d="M189 126L190 127L189 126z"/>
<path style="fill:#b0b0b0; stroke:none;" d="M229 126L230 127L229 126z"/>
<path style="fill:#909090; stroke:none;" d="M243 126L244 127L243 126z"/>
<path style="fill:#808080; stroke:none;" d="M276 126L277 127L276 126z"/>
<path style="fill:#909090; stroke:none;" d="M301 126L302 127L301 126z"/>
<path style="fill:#a0a0a0; stroke:none;" d="M322 126L323 127L322 126z"/>
<path style="fill:#808080; stroke:none;" d="M330 126L331 127L330 126z"/>
<path style="fill:#909090; stroke:none;" d="M356 126L357 127L356 126z"/>
<path style="fill:#303030; stroke:none;" d="M363 126L364 127L363 126z"/>
<path style="fill:#808080; stroke:none;" d="M368 126L369 127L368 126M377.333 126.667C377.278 126.722 377.222 127.778 377.667 127.333C377.722 127.278 377.778 126.222 377.333 126.667z"/>
<path style="fill:#909090; stroke:none;" d="M398 126L399 127L398 126z"/>
<path style="fill:#d0d0d0; stroke:none;" d="M405 126L406 127L405 126M66 127L67 128L66 127z"/>
<path style="fill:#606060; stroke:none;" d="M79 127L80 128L79 127z"/>
<path style="fill:#707070; stroke:none;" d="M102 127L103 128L102 127z"/>
<path style="fill:#505050; stroke:none;" d="M136 127L137 128L136 127z"/>
<path style="fill:#404040; stroke:none;" d="M151 127L152 128L151 127z"/>
<path style="fill:#a0a0a0; stroke:none;" d="M177 127L178 128L177 127z"/>
<path style="fill:#404040; stroke:none;" d="M189 127L190 128L189 127z"/>
<path style="fill:#d0d0d0; stroke:none;" d="M242 127L243 128L242 127z"/>
<path style="fill:#c0c0c0; stroke:none;" d="M275 127L276 128L275 127z"/>
<path style="fill:#d0d0d0; stroke:none;" d="M302 127L303 128L302 127z"/>
<path style="fill:#c0c0c0; stroke:none;" d="M314 127L315 128L314 127z"/>
<path style="fill:#505050; stroke:none;" d="M322 127L323 128L322 127z"/>
<path style="fill:#404040; stroke:none;" d="M354 127L355 128L354 127z"/>
<path style="fill:#303030; stroke:none;" d="M362 127L363 128L362 127z"/>
<path style="fill:#d0d0d0; stroke:none;" d="M368.333 127.667C368.278 127.722 368.222 128.778 368.667 128.333C368.722 128.278 368.778 127.222 368.333 127.667z"/>
<path style="fill:#404040; stroke:none;" d="M396 127L397 128L396 127z"/>
<path style="fill:#d0d0d0; stroke:none;" d="M404 127L405 128L404 127z"/>
<path style="fill:#707070; stroke:none;" d="M66 128L67 129L66 128z"/>
<path style="fill:#303030; stroke:none;" d="M80 128L81 129L80 128z"/>
<path style="fill:#606060; stroke:none;" d="M100 128L101 129L100 128z"/>
<path style="fill:#303030; stroke:none;" d="M106 128L107 129L106 128z"/>
<path style="fill:#707070; stroke:none;" d="M108 128L109 129L108 128z"/>
<path style="fill:#d0d0d0; stroke:none;" d="M134 128L135 129L134 128M152 128L153 129L152 128z"/>
<path style="fill:#303030; stroke:none;" d="M162 128L163 129L162 128z"/>
<path style="fill:#a0a0a0; stroke:none;" d="M176 128L177 129L176 128z"/>
<path style="fill:#707070; stroke:none;" d="M228 128L229 129L228 128z"/>
<path style="fill:#303030; stroke:none;" d="M242 128L243 129L242 128z"/>
<path style="fill:#d0d0d0; stroke:none;" d="M303 128L304 129L303 128z"/>
<path style="fill:#808080; stroke:none;" d="M315 128L316 129L315 128z"/>
<path style="fill:#a0a0a0; stroke:none;" d="M331 128L332 129L331 128z"/>
<path style="fill:#909090; stroke:none;" d="M353 128L354 129L353 128z"/>
<path style="fill:#303030; stroke:none;" d="M361 128L362 129L361 128z"/>
<path style="fill:#505050; stroke:none;" d="M377.333 128.667C377.278 128.722 377.222 129.778 377.667 129.333C377.722 129.278 377.778 128.222 377.333 128.667z"/>
<path style="fill:#909090; stroke:none;" d="M395 128L396 129L395 128z"/>
<path style="fill:#d0d0d0; stroke:none;" d="M403 128L404 129L403 128z"/>
<path style="fill:#404040; stroke:none;" d="M81 129L82 130L81 129z"/>
<path style="fill:#606060; stroke:none;" d="M98 129L99 130L98 129z"/>
<path style="fill:#d0d0d0; stroke:none;" d="M104 129L105 130L104 129M108 129L109 130L108 129z"/>
<path style="fill:#909090; stroke:none;" d="M133 129L134 130L133 129z"/>
<path style="fill:#606060; stroke:none;" d="M152 129L153 130L152 129z"/>
<path style="fill:#a0a0a0; stroke:none;" d="M162 129L163 130L162 129z"/>
<path style="fill:#b0b0b0; stroke:none;" d="M175 129L176 130L175 129z"/>
<path style="fill:#606060; stroke:none;" d="M188 129L189 130L188 129z"/>
<path style="fill:#d0d0d0; stroke:none;" d="M228 129L229 130L228 129z"/>
<path style="fill:#707070; stroke:none;" d="M241 129L242 130L241 129z"/>
<path style="fill:#404040; stroke:none;" d="M274 129L275 130L274 129z"/>
<path style="fill:#303030; stroke:none;" d="M303 129L304 130L303 129z"/>
<path style="fill:#606060; stroke:none;" d="M316 129L317 130L316 129M323 129L324 130L323 129z"/>
<path style="fill:#a0a0a0; stroke:none;" d="M332 129L333 130L332 129z"/>
<path style="fill:#606060; stroke:none;" d="M351 129L352 130L351 129M360 129L361 130L360 129z"/>
<path style="fill:#404040; stroke:none;" d="M393 129L394 130L393 129z"/>
<path style="fill:#d0d0d0; stroke:none;" d="M402 129L403 130L402 129z"/>
<path style="fill:#808080; stroke:none;" d="M67 130L68 131L67 130M82 130L83 131L82 130z"/>
<path style="fill:#909090; stroke:none;" d="M96 130L97 131L96 130z"/>
<path style="fill:#d0d0d0; stroke:none;" d="M103 130L104 131L103 130z"/>
<path style="fill:#505050; stroke:none;" d="M132 130L133 131L132 130z"/>
<path style="fill:#303030; stroke:none;" d="M163 130L164 131L163 130M173 130L174 131L173 130z"/>
<path style="fill:#d0d0d0; stroke:none;" d="M174 130L175 131L174 130z"/>
<path style="fill:#e2e2e2; stroke:none;" d="M177 130L176 132L178 132C178 130.147 178.3 130.65 177 130z"/>
<path style="fill:#303030; stroke:none;" d="M227 130L228 131L227 130z"/>
<path style="fill:#c0c0c0; stroke:none;" d="M240 130L241 131L240 130z"/>
<path style="fill:#909090; stroke:none;" d="M273 130L274 131L273 130z"/>
<path style="fill:#303030; stroke:none;" d="M304 130L305 131L304 130z"/>
<path style="fill:#b0b0b0; stroke:none;" d="M317 130L318 131L317 130z"/>
<path style="fill:#404040; stroke:none;" d="M318 130L319 131L318 130z"/>
<path style="fill:#a0a0a0; stroke:none;" d="M323 130L324 131L323 130z"/>
<path style="fill:#d0d0d0; stroke:none;" d="M333 130L334 131L333 130z"/>
<path style="fill:#404040; stroke:none;" d="M334 130L335 131L334 130z"/>
<path style="fill:#909090; stroke:none;" d="M349 130L350 131L349 130z"/>
<path style="fill:#505050; stroke:none;" d="M359 130L360 131L359 130z"/>
<path style="fill:#a0a0a0; stroke:none;" d="M377.333 130.667C377.278 130.722 377.222 131.778 377.667 131.333C377.722 131.278 377.778 130.222 377.333 130.667M392 130L393 131L392 130z"/>
<path style="fill:#d0d0d0; stroke:none;" d="M401 130L402 131L401 130z"/>
<path style="fill:#909090; stroke:none;" d="M84 131L85 132L84 131z"/>
<path style="fill:#303030; stroke:none;" d="M85 131L86 132L85 131z"/>
<path style="fill:#404040; stroke:none;" d="M92 131L93 132L92 131z"/>
<path style="fill:#909090; stroke:none;" d="M93 131L94 132L93 131z"/>
<path style="fill:#d0d0d0; stroke:none;" d="M94 131L95 132L94 131z"/>
<path style="fill:#a0a0a0; stroke:none;" d="M102 131L103 132L102 131z"/>
<path style="fill:#404040; stroke:none;" d="M107 131L107 134C107.696 132.446 107.696 132.554 107 131z"/>
<path style="fill:#c0c0c0; stroke:none;" d="M130 131L131 132L130 131z"/>
<path style="fill:#505050; stroke:none;" d="M153 131L154 132L153 131z"/>
<path style="fill:#d0d0d0; stroke:none;" d="M163 131L164 132L163 131z"/>
<path style="fill:#808080; stroke:none;" d="M172 131L173 132L172 131z"/>
<path style="fill:#909090; stroke:none;" d="M187 131L188 132L187 131z"/>
<path style="fill:#a0a0a0; stroke:none;" d="M227 131L228 132L227 131z"/>
<path style="fill:#d0d0d0; stroke:none;" d="M272 131L273 132L272 131z"/>
<path style="fill:#505050; stroke:none;" d="M305 131L306 132L305 131z"/>
<path style="fill:#a0a0a0; stroke:none;" d="M320.667 131.333C320.222 131.778 321.278 131.722 321.333 131.667C321.778 131.222 320.722 131.278 320.667 131.333z"/>
<path style="fill:#d0d0d0; stroke:none;" d="M335 131L336 132L335 131z"/>
<path style="fill:#707070; stroke:none;" d="M336 131L337 132L336 131z"/>
<path style="fill:#404040; stroke:none;" d="M337 131L338 132L337 131z"/>
<path style="fill:#303030; stroke:none;" d="M344 131L345 132L344 131z"/>
<path style="fill:#606060; stroke:none;" d="M345 131L346 132L345 131z"/>
<path style="fill:#909090; stroke:none;" d="M346 131L347 132L346 131z"/>
<path style="fill:#303030; stroke:none;" d="M358 131L359 132L358 131z"/>
<path style="fill:#404040; stroke:none;" d="M367 131L367 137C367.951 134.715 367.951 133.285 367 131z"/>
<path style="fill:#606060; stroke:none;" d="M390 131L391 132L390 131z"/>
<path style="fill:#d0d0d0; stroke:none;" d="M400 131L401 132L400 131z"/>
<path style="fill:#404040; stroke:none;" d="M68 132L69 133L68 132z"/>
<path style="fill:#c0c0c0; stroke:none;" d="M87 132C88.2484 132.685 88.5484 132.749 90 133C88.7516 132.315 88.4516 132.251 87 132z"/>
<path style="fill:#707070; stroke:none;" d="M101 132L102 133L101 132M129 132L130 133L129 132z"/>
<path style="fill:#c0c0c0; stroke:none;" d="M154 132L155 133L154 132z"/>
<path style="fill:#d0d0d0; stroke:none;" d="M164 132L165 133L164 132z"/>
<path style="fill:#606060; stroke:none;" d="M170 132L171 133L170 132M176 132L175 134L177 134C177 132.147 177.3 132.65 176 132z"/>
<path style="fill:#808080; stroke:none;" d="M239 132L240 133L239 132z"/>
<path style="fill:#303030; stroke:none;" d="M272 132L273 133L272 132z"/>
<path style="fill:#606060; stroke:none;" d="M306 132L307 133L306 132z"/>
<path style="fill:#303030; stroke:none;" d="M357 132L358 133L357 132M388 132L389 133L388 132z"/>
<path style="fill:#c0c0c0; stroke:none;" d="M389 132L390 133L389 132z"/>
<path style="fill:#d0d0d0; stroke:none;" d="M399 132L400 133L399 132z"/>
<path style="fill:#606060; stroke:none;" d="M69 133L70 134L69 133z"/>
<path style="fill:#404040; stroke:none;" d="M100 133L101 134L100 133z"/>
<path style="fill:#c0c0c0; stroke:none;" d="M127 133L128 134L127 133M166 133C167.248 133.685 167.548 133.749 169 134C167.752 133.315 167.452 133.251 166 133z"/>
<path style="fill:#b0b0b0; stroke:none;" d="M186 133L187 134L186 133z"/>
<path style="fill:#505050; stroke:none;" d="M226 133L227 134L226 133z"/>
<path style="fill:#d0d0d0; stroke:none;" d="M238 133L239 134L238 133z"/>
<path style="fill:#707070; stroke:none;" d="M271 133L272 134L271 133z"/>
<path style="fill:#606060; stroke:none;" d="M307 133L308 134L307 133z"/>
<path style="fill:#d0d0d0; stroke:none;" d="M325 133L326 134L325 133z"/>
<path style="fill:#9e9e9e; stroke:none;" d="M326 133L327 134L326 133z"/>
<path style="fill:#d0d0d0; stroke:none;" d="M355 133L356 134L355 133z"/>
<path style="fill:#a0a0a0; stroke:none;" d="M378 133L379 134L378 133M387 133L388 134L387 133z"/>
<path style="fill:#c0c0c0; stroke:none;" d="M398 133L399 134L398 133z"/>
<path style="fill:#606060; stroke:none;" d="M70 134L71 135L70 134z"/>
<path style="fill:#b0b0b0; stroke:none;" d="M98 134L99 135L98 134z"/>
<path style="fill:#707070; stroke:none;" d="M126 134L127 135L126 134z"/>
<path style="fill:#505050; stroke:none;" d="M155 134L156 135L155 134z"/>
<path style="fill:#a0a0a0; stroke:none;" d="M174 134L175 135L174 134M176 134L177 135L176 134z"/>
<path style="fill:#404040; stroke:none;" d="M186 134L187 135L186 134z"/>
<path style="fill:#808080; stroke:none;" d="M226 134L227 135L226 134z"/>
<path style="fill:#404040; stroke:none;" d="M238 134L239 135L238 134z"/>
<path style="fill:#b0b0b0; stroke:none;" d="M270 134L271 135L270 134z"/>
<path style="fill:#606060; stroke:none;" d="M308 134L309 135L308 134z"/>
<path style="fill:#808080; stroke:none;" d="M324 134L325 135L324 134z"/>
<path style="fill:#a0a0a0; stroke:none;" d="M327 134L328 135L327 134M354 134L355 135L354 134z"/>
<path style="fill:#b0b0b0; stroke:none;" d="M379 134L380 135L379 134z"/>
<path style="fill:#303030; stroke:none;" d="M380 134L381 135L380 134z"/>
<path style="fill:#606060; stroke:none;" d="M384 134L385 135L384 134z"/>
<path style="fill:#b0b0b0; stroke:none;" d="M385 134L386 135L385 134z"/>
<path style="fill:#a0a0a0; stroke:none;" d="M397 134L398 135L397 134z"/>
<path style="fill:#606060; stroke:none;" d="M71 135L72 136L71 135z"/>
<path style="fill:#505050; stroke:none;" d="M97 135L98 136L97 135z"/>
<path style="fill:#c0c0c0; stroke:none;" d="M108 135L109 136L108 135z"/>
<path style="fill:#a0a0a0; stroke:none;" d="M124 135L125 136L124 135z"/>
<path style="fill:#606060; stroke:none;" d="M156 135L157 136L156 135z"/>
<path style="fill:#808080; stroke:none;" d="M173 135L174 136L173 135z"/>
<path style="fill:#c0c0c0; stroke:none;" d="M226 135L226 138C226.696 136.446 226.696 136.554 226 135z"/>
<path style="fill:#909090; stroke:none;" d="M237 135L238 136L237 135z"/>
<path style="fill:#404040; stroke:none;" d="M258 135L258 138C258.696 136.446 258.696 136.554 258 135z"/>
<path style="fill:#303030; stroke:none;" d="M309 135L310 136L309 135z"/>
<path style="fill:#d0d0d0; stroke:none;" d="M310 135L311 136L310 135z"/>
<path style="fill:#c0c0c0; stroke:none;" d="M322 135L323 136L322 135z"/>
<path style="fill:#808080; stroke:none;" d="M328 135L329 136L328 135z"/>
<path style="fill:#505050; stroke:none;" d="M353 135L354 136L353 135z"/>
<path style="fill:#a0a0a0; stroke:none;" d="M396 135L397 136L396 135z"/>
<path style="fill:#303030; stroke:none;" d="M72 136L73 137L72 136z"/>
<path style="fill:#d0d0d0; stroke:none;" d="M73 136L74 137L73 136z"/>
<path style="fill:#808080; stroke:none;" d="M95 136L96 137L95 136z"/>
<path style="fill:#404040; stroke:none;" d="M108 136L109 137L108 136z"/>
<path style="fill:#a0a0a0; stroke:none;" d="M122 136L123 137L122 136z"/>
<path style="fill:#303030; stroke:none;" d="M157 136L158 137L157 136z"/>
<path style="fill:#d0d0d0; stroke:none;" d="M158 136L159 137L158 136z"/>
<path style="fill:#505050; stroke:none;" d="M172 136L173 137L172 136z"/>
<path style="fill:#606060; stroke:none;" d="M185 136L186 137L185 136z"/>
<path style="fill:#404040; stroke:none;" d="M269 136L270 137L269 136z"/>
<path style="fill:#606060; stroke:none;" d="M311 136L312 137L311 136z"/>
<path style="fill:#d0d0d0; stroke:none;" d="M312 136L313 137L312 136z"/>
<path style="fill:#909090; stroke:none;" d="M320 136L321 137L320 136z"/>
<path style="fill:#606060; stroke:none;" d="M329 136L330 137L329 136z"/>
<path style="fill:#b0b0b0; stroke:none;" d="M351 136L352 137L351 136z"/>
<path style="fill:#808080; stroke:none;" d="M395 136L396 137L395 136M74 137L75 138L74 137z"/>
<path style="fill:#a0a0a0; stroke:none;" d="M93 137L94 138L93 137z"/>
<path style="fill:#606060; stroke:none;" d="M109 137L110 138L109 137z"/>
<path style="fill:#a0a0a0; stroke:none;" d="M120 137L121 138L120 137z"/>
<path style="fill:#808080; stroke:none;" d="M159 137L160 138L159 137z"/>
<path style="fill:#a0a0a0; stroke:none;" d="M170 137L171 138L170 137z"/>
<path style="fill:#606060; stroke:none;" d="M175 137L176 138L175 137z"/>
<path style="fill:#505050; stroke:none;" d="M236 137L237 138L236 137z"/>
<path style="fill:#909090; stroke:none;" d="M268 137L269 138L268 137z"/>
<path style="fill:#404040; stroke:none;" d="M314 137C315.769 137.779 317.036 137.912 319 138C317.231 137.221 315.964 137.088 314 137z"/>
<path style="fill:#303030; stroke:none;" d="M330 137L331 138L330 137z"/>
<path style="fill:#d0d0d0; stroke:none;" d="M331 137L332 138L331 137z"/>
<path style="fill:#404040; stroke:none;" d="M350 137L351 138L350 137z"/>
<path style="fill:#606060; stroke:none;" d="M394 137L395 138L394 137z"/>
<path style="fill:#808080; stroke:none;" d="M76 138L77 139L76 138z"/>
<path style="fill:#707070; stroke:none;" d="M91 138L92 139L91 138z"/>
<path style="fill:#404040; stroke:none;" d="M110 138L111 139L110 138z"/>
<path style="fill:#c0c0c0; stroke:none;" d="M111 138L112 139L111 138z"/>
<path style="fill:#b0b0b0; stroke:none;" d="M117 138L118 139L117 138z"/>
<path style="fill:#606060; stroke:none;" d="M118 138L119 139L118 138z"/>
<path style="fill:#707070; stroke:none;" d="M161 138L162 139L161 138z"/>
<path style="fill:#d0d0d0; stroke:none;" d="M162 138L163 139L162 138z"/>
<path style="fill:#909090; stroke:none;" d="M168 138L169 139L168 138z"/>
<path style="fill:#b0b0b0; stroke:none;" d="M175 138L176 139L175 138z"/>
<path style="fill:#808080; stroke:none;" d="M184 138L185 139L184 138z"/>
<path style="fill:#707070; stroke:none;" d="M226 138L227 139L226 138z"/>
<path style="fill:#909090; stroke:none;" d="M235 138L236 139L235 138z"/>
<path style="fill:#d0d0d0; stroke:none;" d="M267 138L268 139L267 138z"/>
<path style="fill:#707070; stroke:none;" d="M332 138L333 139L332 138z"/>
<path style="fill:#d0d0d0; stroke:none;" d="M347 138L348 139L347 138z"/>
<path style="fill:#606060; stroke:none;" d="M348 138L349 139L348 138z"/>
<path style="fill:#a0a0a0; stroke:none;" d="M368 138L369 139L368 138z"/>
<path style="fill:#505050; stroke:none;" d="M393 138L394 139L393 138M78 139L79 140L78 139z"/>
<path style="fill:#909090; stroke:none;" d="M79 139L80 140L79 139z"/>
<path style="fill:#c0c0c0; stroke:none;" d="M80 139L81 140L80 139z"/>
<path style="fill:#b0b0b0; stroke:none;" d="M87 139L88 140L87 139z"/>
<path style="fill:#707070; stroke:none;" d="M88 139L89 140L88 139z"/>
<path style="fill:#303030; stroke:none;" d="M89 139L90 140L89 139z"/>
<path style="fill:#404040; stroke:none;" d="M113 139C114.248 139.685 114.548 139.749 116 140C114.752 139.315 114.452 139.251 113 139M164.667 139.333C164.222 139.778 165.278 139.722 165.333 139.667C165.778 139.222 164.722 139.278 164.667 139.333z"/>
<path style="fill:#d0d0d0; stroke:none;" d="M227 139L228 140L227 139z"/>
<path style="fill:#a0a0a0; stroke:none;" d="M234 139L235 140L234 139z"/>
<path style="fill:#606060; stroke:none;" d="M334 139L335 140L334 139z"/>
<path style="fill:#d0d0d0; stroke:none;" d="M335 139L336 140L335 139z"/>
<path style="fill:#909090; stroke:none;" d="M345 139L346 140L345 139z"/>
<path style="fill:#303030; stroke:none;" d="M346 139L347 140L346 139z"/>
<path style="fill:#404040; stroke:none;" d="M368 139L369 140L368 139z"/>
<path style="fill:#303030; stroke:none;" d="M392 139L393 140L392 139z"/>
<path style="fill:#606060; stroke:none;" d="M174 140L175 141L174 140z"/>
<path style="fill:#a0a0a0; stroke:none;" d="M183 140L184 141L183 140M228 140L229 141L228 140z"/>
<path style="fill:#808080; stroke:none;" d="M233 140L234 141L233 140z"/>
<path style="fill:#505050; stroke:none;" d="M266 140L267 141L266 140z"/>
<path style="fill:#606060; stroke:none;" d="M337.667 140.333C337.222 140.778 338.278 140.722 338.333 140.667C338.778 140.222 337.722 140.278 337.667 140.333z"/>
<path style="fill:#808080; stroke:none;" d="M339 140C340.248 140.685 340.548 140.749 342 141C340.752 140.315 340.452 140.251 339 140z"/>
<path style="fill:#404040; stroke:none;" d="M342 140L343 141L342 140z"/>
<path style="fill:#c0c0c0; stroke:none;" d="M369 140L370 141L369 140z"/>
<path style="fill:#d0d0d0; stroke:none;" d="M390 140L391 141L390 140z"/>
<path style="fill:#c0c0c0; stroke:none;" d="M174 141L174 145C174.71 143.241 174.71 142.759 174 141z"/>
<path style="fill:#404040; stroke:none;" d="M230.667 141.333C230.222 141.778 231.278 141.722 231.333 141.667C231.778 141.222 230.722 141.278 230.667 141.333z"/>
<path style="fill:#808080; stroke:none;" d="M265 141L266 142L265 141z"/>
<path style="fill:#303030; stroke:none;" d="M369 141L370 142L369 141z"/>
<path style="fill:#808080; stroke:none;" d="M389 141L390 142L389 141z"/>
<path style="fill:#a0a0a0; stroke:none;" d="M182 142L183 143L182 142M264 142L265 143L264 142z"/>
<path style="fill:#606060; stroke:none;" d="M370 142L371 143L370 142z"/>
<path style="fill:#d0d0d0; stroke:none;" d="M387 142L388 143L387 142z"/>
<path style="fill:#303030; stroke:none;" d="M388 142L389 143L388 142z"/>
<path style="fill:#d0d0d0; stroke:none;" d="M259 143L260 144L259 143z"/>
<path style="fill:#c0c0c0; stroke:none;" d="M263 143L264 144L263 143z"/>
<path style="fill:#606060; stroke:none;" d="M371 143L372 144L371 143M386 143L387 144L386 143z"/>
<path style="fill:#707070; stroke:none;" d="M181 144L182 145L181 144z"/>
<path style="fill:#606060; stroke:none;" d="M259 144L260 145L259 144z"/>
<path style="fill:#808080; stroke:none;" d="M262 144L263 145L262 144z"/>
<path style="fill:#a0a0a0; stroke:none;" d="M373 144L374 145L373 144z"/>
<path style="fill:#b0b0b0; stroke:none;" d="M383 144L384 145L383 144z"/>
<path style="fill:#606060; stroke:none;" d="M384 144L385 145L384 144z"/>
<path style="fill:#b0b0b0; stroke:none;" d="M180 145L181 146L180 145z"/>
<path style="fill:#808080; stroke:none;" d="M375.667 145.333C375.222 145.778 376.278 145.722 376.333 145.667C376.778 145.222 375.722 145.278 375.667 145.333z"/>
<path style="fill:#c0c0c0; stroke:none;" d="M377.667 145.333C377.222 145.778 378.278 145.722 378.333 145.667C378.778 145.222 377.722 145.278 377.667 145.333z"/>
<path style="fill:#808080; stroke:none;" d="M379.667 145.333C379.222 145.778 380.278 145.722 380.333 145.667C380.778 145.222 379.722 145.278 379.667 145.333z"/>
<path style="fill:#505050; stroke:none;" d="M381 145L382 146L381 145z"/>
<path style="fill:#606060; stroke:none;" d="M175 146L176 147L175 146z"/>
<path style="fill:#b0b0b0; stroke:none;" d="M179 146L180 147L179 146z"/>
<path style="fill:#303030; stroke:none;" d="M177.667 147.333C177.222 147.778 178.278 147.722 178.333 147.667C178.778 147.222 177.722 147.278 177.667 147.333z"/>
</svg>
