<svg xmlns="http://www.w3.org/2000/svg" xmlns:xlink="http://www.w3.org/1999/xlink" width="532.68" height="315.12" viewBox="0 0 532.68 315.12">
<defs>
<style>
.cls-1{fill:none;}.cls-2{fill:#e6f0f2;}.cls-3{clip-path:url(#clip-path);}.cls-4{fill:#26b2c9;}.cls-5{fill:#fff;}
</style>
<clipPath id="clip-path">
<rect class="cls-1" x="-375.77" y="-11.04" width="183.7" height="90.43"/>
</clipPath>
</defs>
<title>cw-images</title>
<g id="Layer_11" data-name="Layer 11">
<path id="Path_485" data-name="Path 485" class="cls-2" d="M0,0H496.43c28.85,0,46.1,32.09,30.18,56.15L366,298.9a36.19,36.19,0,0,1-30.18,16.22H0Z"/>
</g>
<g id="Layer_13" data-name="Layer 13">
<g id="Group_1795" data-name="Group 1795">
<g id="Group_1794" data-name="Group 1794">
<g class="cls-3">
<g id="Group_1793" data-name="Group 1793">
<g id="Logo">
<rect id="Rectangle_1708" data-name="Rectangle 1708" class="cls-4" x="-192.07" y="1.4" width="397.73" height="66.57"/><path id="Path_492" data-name="Path 492" class="cls-5" d="M-174.55,50.88V48.62a34.63,34.63,0,0,0,10.74,1.58c6.35,0,9.51-2.64,9.51-7.92,0-3.61-2.1-5.42-6.31-5.4h-6.8Q-176,36.88-176,29q0-9.5,12.46-9.5a37.6,37.6,0,0,1,10.06,1.36v2a37.2,37.2,0,0,0-10.06-1.36q-10.18,0-10.18,7.46,0,5.65,6.36,5.65h6.8q8.6,0,8.6,7.69,0,10-11.79,10a40.07,40.07,0,0,1-10.73-1.35Zm29.78-10.83q0,9.93,8.56,9.91t8.55-9.91q0-9.75-8.55-9.75T-144.77,40.05Zm-2.27.09q0-11.87,10.81-11.87t10.82,11.87q0,11.84-10.82,11.85T-147,40.14Zm27.07,12v-25q0-8.61,8.49-8.61a13.44,13.44,0,0,1,5.06.9v2a13,13,0,0,0-5.08-.91q-6.19,0-6.2,5.27v2.47h8.55v2h-8.55V52l-2.27.09Zm15.6-27.71h1.44l.43,3.85h5.71v2h-5.31v15q0,4.68,3.4,4.68h1.91v2h-1.87q-5.7,0-5.71-6.4Zm9.75,3.85h2.32l4.89,20.87,7.21-20.87h1.67l7.4,20.41,5-20.41h2.23L-69.83,52h-2.35l-7.18-20.24-7,20.24h-2.45l-5.76-23.74Zm34,16.57Q-60.64,38-51,38a62.51,62.51,0,0,1,7.23.45V35.52q0-5.22-7.86-5.22a24.33,24.33,0,0,0-7.19,1.13v-2a24.71,24.71,0,0,1,7.19-1.13q10.14,0,10.13,7.59V52h-1.39l-.73-1.67A24.2,24.2,0,0,1-52.09,52q-8.55,0-8.55-7.17Zm16.89-4.36A60.37,60.37,0,0,0-51,40q-7.38,0-7.39,4.75c0,3.48,2.1,5.21,6.28,5.2a20.36,20.36,0,0,0,8.34-1.85V40.48ZM-35,52V28.27h1.63l.28,3a6.69,6.69,0,0,1,6.11-3v1.9a6,6,0,0,0-5.74,3V52ZM-13,28.27q10,0,8.41,12.39h-17q0,9.31,10.51,9.31a26.61,26.61,0,0,0,6-.68v2a33.94,33.94,0,0,1-7.32.68q-11.49,0-11.5-12.14,0-11.59,10.9-11.6Zm-8.62,10.27H-6.78q.53-8.28-6.92-8.28t-8,8.28ZM11.8,50.89V48.63a35.24,35.24,0,0,0,10.74,1.58q9.52,0,9.51-7.92,0-5.43-6.31-5.41h-6.8q-8.64,0-8.64-7.91,0-9.51,12.46-9.51a38,38,0,0,1,10.06,1.36v2A37.2,37.2,0,0,0,22.76,21.5Q12.58,21.5,12.58,29q0,5.64,6.36,5.65h6.8q8.6,0,8.6,7.68,0,10-11.78,10A39.69,39.69,0,0,1,11.82,50.9ZM41.58,40.05q0,9.93,8.56,9.92t8.55-9.92q0-9.75-8.55-9.75T41.58,40.05Zm-2.27.09q0-11.87,10.81-11.87T60.94,40.14Q60.94,52,50.12,52T39.31,40.14ZM66.38,19.68V52h2.27V19.68Zm27.94,8.59V52H92.65l-.26-3a21.51,21.51,0,0,1-9.83,3q-7.41,0-7.41-8.85V28.27h2.28v15c0,4.44,2.11,6.65,6.32,6.66a16.6,16.6,0,0,0,8.3-3V28.28Zm6.49-3.84h1.44l.43,3.84h5.71v2h-5.31v15q0,4.68,3.4,4.68h1.91v2h-1.87q-5.7,0-5.71-6.39Zm11.91-4.75v2.26H115V19.68Zm0,8.59V52H115V28.27Zm10,11.78q0,9.93,8.55,9.92t8.56-9.92q0-9.75-8.56-9.75T122.69,40.05Zm-2.27.09q0-11.87,10.81-11.87t10.82,11.87Q142.05,52,131.23,52T120.42,40.14ZM147.48,52V28.28h1.63l.28,3a21.66,21.66,0,0,1,9.83-3,6.59,6.59,0,0,1,7.44,5.61,6.89,6.89,0,0,1,0,1.87V52h-2.27V35.69q0-5.3-5.71-5.29a17.21,17.21,0,0,0-8.92,3V52Zm25.67-1.12V48.63A23.54,23.54,0,0,0,181,50c4.77,0,7.16-1.59,7.16-4.75q0-3.84-5.3-3.84h-3.68q-7.16,0-7.15-6.33,0-6.8,9.46-6.79a27.87,27.87,0,0,1,7.86,1.13v2.26a23.37,23.37,0,0,0-7.86-1.36q-7.18,0-7.19,4.76,0,4.06,4.88,4.06h3.68q7.57,0,7.57,6.11c0,4.52-3.14,6.79-9.43,6.78a27.3,27.3,0,0,1-7.88-1.13Z"/></g></g></g></g></g></g></svg>